<svg id="Artwork" xmlns="http://www.w3.org/2000/svg" viewBox="0 0 158.74 77.53"><defs><style>.cls-1{fill:#1c1b1a;}</style></defs><polygon class="cls-1" points="79.58 43.99 63.33 27.74 67.63 23.43 79.58 35.38 91.53 23.43 95.84 27.74 79.58 43.99"/><path class="cls-1" d="M144.38,128.55h-4.87V120h4.87Zm0-17.06h-4.87V103h4.87Z" transform="translate(-62.36 -102.96)"/><path class="cls-1" d="M141.73,165.06a25.78,25.78,0,0,1-12.91-3.47l-26.07-15.08a19.72,19.72,0,0,0-9.86-2.65H62.36v-6.09H92.89a25.81,25.81,0,0,1,12.91,3.47l26.07,15.07a20,20,0,0,0,19.72,0l26.07-15.07a25.84,25.84,0,0,1,12.91-3.47H221.1v6.09H190.57a19.84,19.84,0,0,0-9.87,2.65l-26.06,15.08a25.76,25.76,0,0,1-12.91,3.47" transform="translate(-62.36 -102.96)"/><rect class="cls-1" y="71.44" width="158.74" height="6.09"/><polygon class="cls-1" points="104.14 59.22 158.74 59.22 158.74 53.12 114.71 53.12 104.14 59.22"/><polygon class="cls-1" points="43.6 53.12 0 53.12 0 59.22 54.41 59.22 43.6 53.12"/></svg>