<svg id="Artwork" xmlns="http://www.w3.org/2000/svg" viewBox="0 0 158.74 103.91"><defs><style>.cls-1{fill:#1c1b1a;}</style></defs><path class="cls-1" d="M212.7,135.82,174,146.37l-12.36,3.55a41.45,41.45,0,0,1-27.18-1.55,44.56,44.56,0,0,0-12.62-3.17l-21.39-2.13a5.61,5.61,0,0,1,.56-11.2,5.25,5.25,0,0,1,.56,0l27.84,2.78A9.68,9.68,0,0,0,133.71,116l-29.63-11.89-16.4-1.64L75,102.06c-6.85-.68-9.41-1.29-9.41-5.21l18.53-3.92,23.88.46,38.37,5.75a10.31,10.31,0,0,1,4.78,1.75L177.27,119l25-8.8-1.2-3-23.34,8.21L152.9,98.27A13.34,13.34,0,0,0,146.71,96l-38.49-5.77-24.44-.43L62.55,94.23l-.12,1.16c-.85,8.54,5.79,9.2,12.31,9.85l4.7.14L71.13,109l.25,1.25a11.28,11.28,0,0,0,11,9.12,11.77,11.77,0,0,0,2.87-.37l20.43-5.33a17.31,17.31,0,0,1,4.15-.75l8.51.31,14.22,5.7a6.48,6.48,0,0,1,4.27,6.76,6.41,6.41,0,0,1-2.35,4.38,6.48,6.48,0,0,1-4.76,1.44l-27.84-2.78a8.79,8.79,0,0,0-1.74,17.5l21.39,2.14a41.36,41.36,0,0,1,11.71,2.94A44.62,44.62,0,0,0,162.53,153l51.4-14.13ZM104.86,110.6l-20.39,5.31a8.08,8.08,0,0,1-9.63-5l12.08-5.26h.56l15.63,1.5,6.6,2.65A20.74,20.74,0,0,0,104.86,110.6Z" transform="translate(-62.36 -89.78)"/><path class="cls-1" d="M203.25,193.68H90.84A17.86,17.86,0,0,1,73,175.84C73,165.5,80.49,158,90.84,158c4,0,9.08,1.23,15.51,2.8,10.07,2.44,23.85,5.79,40.69,5.79,16.5,0,29.3-3.13,39.57-5.64,6.75-1.65,12.07-2.95,16.64-2.95,11,0,17.85,6.84,17.85,17.85a17.86,17.86,0,0,1-17.85,17.84M90.84,161.17c-8.64,0-14.67,6-14.67,14.67A14.68,14.68,0,0,0,90.84,190.5H203.25a14.68,14.68,0,0,0,14.67-14.66c0-9.19-5.49-14.67-14.67-14.67-4.19,0-9.35,1.26-15.88,2.86-10.44,2.56-23.44,5.74-40.33,5.74-17.22,0-31.22-3.4-41.44-5.89-6.23-1.51-11.14-2.71-14.76-2.71" transform="translate(-62.36 -89.78)"/><path class="cls-1" d="M94.78,168.89a2.55,2.55,0,1,1-2.55-2.55,2.55,2.55,0,0,1,2.55,2.55" transform="translate(-62.36 -89.78)"/><path class="cls-1" d="M93.9,184.54A2.55,2.55,0,1,1,91.35,182a2.56,2.56,0,0,1,2.55,2.55" transform="translate(-62.36 -89.78)"/><path class="cls-1" d="M86.51,176.14A2.55,2.55,0,1,1,84,173.59a2.55,2.55,0,0,1,2.55,2.55" transform="translate(-62.36 -89.78)"/><path class="cls-1" d="M109.38,172.23a2.55,2.55,0,1,1-2.55-2.55,2.55,2.55,0,0,1,2.55,2.55" transform="translate(-62.36 -89.78)"/><path class="cls-1" d="M109.12,184.54a2.56,2.56,0,1,1-2.55-2.55,2.56,2.56,0,0,1,2.55,2.55" transform="translate(-62.36 -89.78)"/><path class="cls-1" d="M100.76,177.33a2.55,2.55,0,1,1-2.55-2.55,2.55,2.55,0,0,1,2.55,2.55" transform="translate(-62.36 -89.78)"/><path class="cls-1" d="M127.24,174.78a2.56,2.56,0,1,1-2.56-2.55,2.56,2.56,0,0,1,2.56,2.55" transform="translate(-62.36 -89.78)"/><path class="cls-1" d="M127,184.54a2.55,2.55,0,1,1-2.55-2.55,2.56,2.56,0,0,1,2.55,2.55" transform="translate(-62.36 -89.78)"/><path class="cls-1" d="M117.65,178.39a2.56,2.56,0,1,1-2.55-2.55,2.55,2.55,0,0,1,2.55,2.55" transform="translate(-62.36 -89.78)"/><path class="cls-1" d="M138,179.88a2.55,2.55,0,1,1-2.55-2.55,2.55,2.55,0,0,1,2.55,2.55" transform="translate(-62.36 -89.78)"/><path class="cls-1" d="M198,168.89a2.56,2.56,0,1,0,2.56-2.55,2.56,2.56,0,0,0-2.56,2.55" transform="translate(-62.36 -89.78)"/><path class="cls-1" d="M198.85,184.54A2.55,2.55,0,1,0,201.4,182a2.56,2.56,0,0,0-2.55,2.55" transform="translate(-62.36 -89.78)"/><path class="cls-1" d="M206.23,176.14a2.55,2.55,0,1,0,2.55-2.55,2.55,2.55,0,0,0-2.55,2.55" transform="translate(-62.36 -89.78)"/><path class="cls-1" d="M183.36,172.23a2.56,2.56,0,1,0,2.56-2.55,2.56,2.56,0,0,0-2.56,2.55" transform="translate(-62.36 -89.78)"/><path class="cls-1" d="M183.63,184.54a2.55,2.55,0,1,0,2.55-2.55,2.56,2.56,0,0,0-2.55,2.55" transform="translate(-62.36 -89.78)"/><path class="cls-1" d="M192,177.33a2.55,2.55,0,1,0,2.55-2.55,2.55,2.55,0,0,0-2.55,2.55" transform="translate(-62.36 -89.78)"/><path class="cls-1" d="M165.51,174.78a2.55,2.55,0,1,0,2.55-2.55,2.55,2.55,0,0,0-2.55,2.55" transform="translate(-62.36 -89.78)"/><path class="cls-1" d="M165.77,184.54a2.55,2.55,0,1,0,2.56-2.55,2.56,2.56,0,0,0-2.56,2.55" transform="translate(-62.36 -89.78)"/><path class="cls-1" d="M175.1,178.39a2.55,2.55,0,1,0,2.55-2.55,2.55,2.55,0,0,0-2.55,2.55" transform="translate(-62.36 -89.78)"/><path class="cls-1" d="M143.69,174.78a2.55,2.55,0,1,0,2.55-2.55,2.55,2.55,0,0,0-2.55,2.55" transform="translate(-62.36 -89.78)"/><path class="cls-1" d="M144,184.54A2.56,2.56,0,1,0,146.5,182a2.56,2.56,0,0,0-2.55,2.55" transform="translate(-62.36 -89.78)"/><path class="cls-1" d="M155.1,179.62a2.55,2.55,0,1,0,2.55-2.56,2.55,2.55,0,0,0-2.55,2.56" transform="translate(-62.36 -89.78)"/></svg>