<svg id="Layer_1" data-name="Layer 1" xmlns="http://www.w3.org/2000/svg" viewBox="0 0 360 106.81"><path d="M568.6,461.13a15,15,0,1,1,15.12-15,14.92,14.92,0,0,1-15.12,15m27.8-30.69V420.07H578a28.87,28.87,0,0,0-9.4-1.63c-15.84,0-28.3,12-28.3,27.65s12.46,27.64,28.3,27.64,28.31-12,28.31-27.64a24.19,24.19,0,0,0-4.3-14.33Z" transform="translate(-461 -396.59)"/><path d="M507.49,461.13a15,15,0,1,1,15.13-15,14.93,14.93,0,0,1-15.13,15m0-42.68c-15.83,0-28.3,12-28.3,27.64s12.47,27.64,28.3,27.64,28.31-12,28.31-27.64-12.47-27.64-28.31-27.64" transform="translate(-461 -396.59)"/><rect y="1.42" width="13.08" height="74.19"/><rect x="141.12" y="23.48" width="13.08" height="52.14"/><path d="M568.6,490.7a14.81,14.81,0,0,1-15-14.94H540.3c0,15.65,12.46,27.65,28.3,27.65s28.31-12,28.31-27.65H583.62a14.81,14.81,0,0,1-15,14.94" transform="translate(-461 -396.59)"/><path d="M663.33,440.7c1.73-6.91,7-10.77,13.89-10.77s12,3.76,13.59,10.77Zm14.2-22.25c-15.74,0-27.69,12-27.69,27.94,0,15.76,10.93,27.34,27.89,27.34a32.15,32.15,0,0,0,23.92-10l-8.79-8.64c-4.29,4.07-8.89,7-14.82,7-7.15,0-12.57-4.07-14.41-10.88h40.78v-3.15c0-17.78-11-29.67-26.88-29.67" transform="translate(-461 -396.59)"/><path d="M815.48,414.79v-1.63h1c.82,0,1.13.31,1.13.81s-.31.82-1.13.82Zm2.76-.82c0-1-.71-1.42-1.74-1.42h-1.63v4.68h.61V415.4h1l1.13,1.83h.71l-1.22-1.94a1.18,1.18,0,0,0,1.12-1.32" transform="translate(-461 -396.59)"/><path d="M793.31,418.45a21.19,21.19,0,0,0-15.84,6.6V398H764.39v74.19h13.08V443.85c0-7.52,4.8-12.7,12.77-12.7,7.46,0,11.55,4.57,11.55,12.7v28.36h13.08v-30.7c0-14.43-9.1-23.06-21.56-23.06" transform="translate(-461 -396.59)"/><path d="M816.5,418.85a3.91,3.91,0,1,1,0-7.82,3.91,3.91,0,0,1,0,7.82m0-8.43a4.52,4.52,0,1,0,4.5,4.47,4.54,4.54,0,0,0-4.5-4.47" transform="translate(-461 -396.59)"/><path d="M736.9,431.05c5.52,0,10,2.84,13.49,6.81l9.09-8.95a28.41,28.41,0,0,0-22.38-10.46c-15.83,0-28.3,12-28.3,27.64s12.47,27.64,28.3,27.64a28.38,28.38,0,0,0,22.38-10.47l-9.09-8.94c-3.37,3.86-8,6.81-13.59,6.81a15,15,0,0,1,.1-30.08" transform="translate(-461 -396.59)"/><polygon points="179.95 7.42 166.87 7.42 166.87 23.48 159.82 23.48 159.82 35.06 166.87 35.06 166.87 75.61 179.95 75.61 179.95 35.06 187.1 35.06 187.1 23.48 179.95 23.48 179.95 7.42"/><path d="M608.56,396.59a8.59,8.59,0,1,0,8.78,8.64,8.51,8.51,0,0,0-8.78-8.64" transform="translate(-461 -396.59)"/></svg>